<svg width="1024" height="1024" viewBox="0 0 1024 1024" xmlns="http://www.w3.org/2000/svg">
    <defs>
        <linearGradient id="bg_grad" x1="0%" y1="0%" x2="100%" y2="100%">
            <stop offset="0%" style="stop-color:#0F172A;stop-opacity:1" />
            <stop offset="100%" style="stop-color:#0D9488;stop-opacity:1" />
        </linearGradient>
        <radialGradient id="glow_grad" cx="50%" cy="50%" r="50%">
            <stop offset="0%" style="stop-color:#2DD4BF;stop-opacity:1" />
            <stop offset="100%" style="stop-color:#2DD4BF;stop-opacity:0" />
        </radialGradient>
        <filter id="shadow" x="-20%" y="-20%" width="140%" height="140%">
            <feGaussianBlur in="SourceAlpha" stdDeviation="15" />
            <feOffset dx="0" dy="10" result="offsetblur" />
            <feComponentTransfer>
                <feFuncA type="linear" slope="0.3" />
            </feComponentTransfer>
            <feMerge>
                <feMergeNode />
                <feMergeNode in="SourceGraphic" />
            </feMerge>
        </filter>
    </defs>
    <rect x="0" y="0" width="1024" height="1024" rx="220" fill="url(#bg_grad)" />
    <g filter="url(#shadow)" transform="translate(380, 312)">
        <path d="M0 0 L320 200" stroke="white" stroke-width="60" stroke-linecap="round" opacity="0.9" />
        <path d="M320 200 L0 400" stroke="white" stroke-width="60" stroke-linecap="round" opacity="0.9" />
        <path d="M-30 100 L-30 300" stroke="white" stroke-width="60" stroke-linecap="round" opacity="0.9" />
        <circle cx="80" cy="200" r="45" fill="url(#glow_grad)" opacity="0.8" />
        <circle cx="80" cy="200" r="15" fill="#5EEAD4" />
    </g>
    <path d="M220 50 Q 512 30, 804 50 Q 974 50, 974 220 L 974 350 Q 512 400, 50 350 L 50 220 Q 50 50, 220 50" fill="white" opacity="0.05" />
</svg>